<svg class="svg-icon" style="width: 1em; height: 1em;vertical-align: middle;fill: currentColor;overflow: hidden;" viewBox="0 0 1024 1024" version="1.1" xmlns="http://www.w3.org/2000/svg"><path d="M512 298.666667c-117.76 0-213.333333 95.573333-213.333333 213.333333s95.573333 213.333333 213.333333 213.333333 213.333333-95.573333 213.333333-213.333333-95.573333-213.333333-213.333333-213.333333z m0-213.333334C276.266667 85.333333 85.333333 276.266667 85.333333 512s190.933333 426.666667 426.666667 426.666667 426.666667-190.933333 426.666667-426.666667S747.733333 85.333333 512 85.333333z m0 768c-188.586667 0-341.333333-152.746667-341.333333-341.333333S323.413333 170.666667 512 170.666667s341.333333 152.746667 341.333333 341.333333-152.746667 341.333333-341.333333 341.333333z"  /></svg>